# xmcd
#
# Track frame offsets: 
#        150
#        21867
#        42247
#        66379
#        82882
#        105517
#        125773
#        147460
#        163609
#        183073
#        192037
#
# Disc length: 2742 seconds
#
# Revision: 4
# Processed by: cddbd v1.5.2PL0 Copyright (c) Steve Scherf et al.
# Submitted via: ExactAudioCopy v1.0b1
#
DISCID=900ab40b
DTITLE=Barrelhouse - Time Frames
DYEAR=1998
DGENRE=Blues
TTITLE0=The Train
TTITLE1=The Fields Have Turned Brown
TTITLE2=Worried Blues
TTITLE3=Much Later
TTITLE4=Baby Please
TTITLE5=Another Way To Find You
TTITLE6=Sally Go Round The Roses
TTITLE7=Hard Time Killing Floor
TTITLE8=Skin And Bones
TTITLE9=Straight To The Airport
TTITLE10=I Won't Answer
EXTD=YEAR: 1997
EXTT0=
EXTT1=
EXTT2=
EXTT3=
EXTT4=
EXTT5=
EXTT6=
EXTT7=
EXTT8=
EXTT9=
EXTT10=
PLAYORDER=
